<?xml version="1.0" encoding="utf-8"?>
<!-- Generator: Adobe Illustrator 24.0.2, SVG Export Plug-In . SVG Version: 6.00 Build 0)  -->
<svg version="1.1" id="Capa_1" xmlns="http://www.w3.org/2000/svg" xmlns:xlink="http://www.w3.org/1999/xlink" x="0px" y="0px"
	 viewBox="0 0 100 96" style="enable-background:new 0 0 100 96;" xml:space="preserve">
<style type="text/css">
	.st0{fill:#FFFFFF;}
</style>
<path class="st0" d="M100.4,29.5c0-16.3-15-29.5-33.5-29.5h-32C0.9,0,0.6-0.2,0.6,29.5v36.9C0.6,82.8,16.4,96,34.9,96H67
	c35.8-1.1,32.6,3.5,33.5-29.5L100.4,29.5L100.4,29.5z M80.4,53c0,5-0.8,9.3-2.4,13s-3.8,6.8-6.5,9.3s-5.9,4.3-9.5,5.5
	s-7.5,1.8-11.5,1.8s-7.9-0.7-11.5-1.9c-3.6-1.3-6.8-3.2-9.5-5.7s-4.9-5.6-6.5-9.3c-1.6-3.7-2.4-7.9-2.4-12.7V14.5
	c0-0.5,0.2-1,0.6-1.4c0.4-0.5,0.8-0.7,1.4-0.7h9c0.5,0,1,0.2,1.5,0.6c0.5,0.4,0.8,0.9,0.8,1.5v38.8h-0.1c0,2.7,0.4,5.1,1.2,7.3
	s1.8,4,3.3,5.5c1.4,1.5,3.1,2.6,5,3.4c1.9,0.8,4.9,1.2,7.3,1.2c2.5,0,5.6-0.4,7.6-1.2s3.7-2,5-3.5c1.4-1.5,2.4-3.4,3.1-5.5
	s1.1-4.5,1.1-7.1V14.5c0-0.6,0.2-1.1,0.6-1.5c0.4-0.4,1-0.6,1.6-0.6H78c0.7,0,1.2,0.2,1.7,0.6c0.5,0.4,0.7,0.9,0.7,1.5V53z"/>
</svg>
